{
	"asset":{
		"generator":"Khronos glTF Blender I/O v5.0.21",
		"version":"2.0"
	},
	"scene":0,
	"scenes":[
		{
			"name":"Scene",
			"nodes":[
				0,
				1,
				2,
				3,
				4,
				5,
				6,
				7,
				8,
				9
			]
		}
	],
	"nodes":[
		{
			"mesh":0,
			"name":"Plane",
			"rotation":[
				0.7071068286895752,
				0,
				0,
				0.7071068286895752
			],
			"scale":[
				0.6641440987586975,
				0.6641440987586975,
				0.6641440987586975
			]
		},
		{
			"mesh":1,
			"name":"Plane.001",
			"rotation":[
				0.7071068286895752,
				0,
				0,
				0.7071068286895752
			],
			"scale":[
				0.5418999195098877,
				0.5418999195098877,
				0.5418999195098877
			],
			"translation":[
				0.27672079205513,
				0,
				-0.11186805367469788
			]
		},
		{
			"mesh":1,
			"name":"Plane.002",
			"rotation":[
				0.7071068286895752,
				0,
				0,
				0.7071068286895752
			],
			"scale":[
				0.5521387457847595,
				0.5521387457847595,
				0.5521387457847595
			],
			"translation":[
				-0.14403046667575836,
				0,
				-0.23114970326423645
			]
		},
		{
			"mesh":1,
			"name":"Plane.003",
			"rotation":[
				0.7071068286895752,
				0,
				0,
				0.7071068286895752
			],
			"scale":[
				0.6411153078079224,
				0.6411153078079224,
				0.6411153078079224
			],
			"translation":[
				-0.27188801765441895,
				0,
				0.021550193428993225
			]
		},
		{
			"mesh":0,
			"name":"Plane.004",
			"rotation":[
				0.7071068286895752,
				0,
				0,
				0.7071068286895752
			],
			"scale":[
				0.5,
				0.5,
				0.5
			],
			"translation":[
				0.1403728574514389,
				0,
				0.14037282764911652
			]
		},
		{
			"mesh":0,
			"name":"Plane.005",
			"rotation":[
				0.7071068286895752,
				0,
				0,
				0.7071068286895752
			],
			"scale":[
				0.5915440320968628,
				0.5915440320968628,
				0.5915440320968628
			],
			"translation":[
				0.09998726844787598,
				0,
				-0.1582217663526535
			]
		},
		{
			"mesh":0,
			"name":"Plane.006",
			"rotation":[
				0.7071068286895752,
				0,
				0,
				0.7071068286895752
			],
			"scale":[
				0.5,
				0.5,
				0.5
			],
			"translation":[
				-0.13132129609584808,
				0,
				0.2085285782814026
			]
		},
		{
			"mesh":1,
			"name":"Plane.007",
			"rotation":[
				0.7071068286895752,
				0,
				0,
				0.7071068286895752
			],
			"scale":[
				0.5915440320968628,
				0.5915440320968628,
				0.5915440320968628
			],
			"translation":[
				0.30000776052474976,
				0,
				0.08817899227142334
			]
		},
		{
			"mesh":1,
			"name":"Plane.008",
			"rotation":[
				0.7071068286895752,
				0,
				0,
				0.7071068286895752
			],
			"scale":[
				0.653228759765625,
				0.653228759765625,
				0.653228759765625
			],
			"translation":[
				0.10443346202373505,
				0,
				0.28086885809898376
			]
		},
		{
			"mesh":0,
			"name":"Plane.009",
			"rotation":[
				0.7071068286895752,
				0,
				0,
				0.7071068286895752
			],
			"scale":[
				0.5521387457847595,
				0.5521387457847595,
				0.5521387457847595
			],
			"translation":[
				0.16691350936889648,
				0,
				-0.2976524233818054
			]
		}
	],
	"materials":[
		{
			"alphaMode":"BLEND",
			"doubleSided":true,
			"name":"trees",
			"pbrMetallicRoughness":{
				"baseColorTexture":{
					"index":0
				},
				"metallicFactor":0,
				"roughnessFactor":0.5
			}
		}
	],
	"meshes":[
		{
			"name":"Plane",
			"primitives":[
				{
					"attributes":{
						"POSITION":0,
						"NORMAL":1,
						"TEXCOORD_0":2
					},
					"indices":3,
					"material":0
				}
			]
		},
		{
			"name":"Plane.001",
			"primitives":[
				{
					"attributes":{
						"POSITION":4,
						"NORMAL":5,
						"TEXCOORD_0":6
					},
					"indices":3,
					"material":0
				}
			]
		}
	],
	"textures":[
		{
			"sampler":0,
			"source":0
		}
	],
	"images":[
		{
			"mimeType":"image/png",
			"name":"world_sprites.png",
			"uri":"../../texture/images/world_sprites.png"
		}
	],
	"accessors":[
		{
			"bufferView":0,
			"componentType":5126,
			"count":4,
			"max":[
				0.12319550663232803,
				-8.52876880230724e-09,
				0.020086653530597687
			],
			"min":[
				-0.124432772397995,
				-1.1450687509295676e-08,
				-0.47716331481933594
			],
			"type":"VEC3"
		},
		{
			"bufferView":1,
			"componentType":5126,
			"count":4,
			"type":"VEC3"
		},
		{
			"bufferView":2,
			"componentType":5126,
			"count":4,
			"type":"VEC2"
		},
		{
			"bufferView":3,
			"componentType":5123,
			"count":6,
			"type":"SCALAR"
		},
		{
			"bufferView":4,
			"componentType":5126,
			"count":4,
			"max":[
				0.12319550663232803,
				-8.52876880230724e-09,
				0.020086653530597687
			],
			"min":[
				-0.124432772397995,
				-1.1450687509295676e-08,
				-0.47716331481933594
			],
			"type":"VEC3"
		},
		{
			"bufferView":5,
			"componentType":5126,
			"count":4,
			"type":"VEC3"
		},
		{
			"bufferView":6,
			"componentType":5126,
			"count":4,
			"type":"VEC2"
		}
	],
	"bufferViews":[
		{
			"buffer":0,
			"byteLength":48,
			"byteOffset":0,
			"target":34962
		},
		{
			"buffer":0,
			"byteLength":48,
			"byteOffset":48,
			"target":34962
		},
		{
			"buffer":0,
			"byteLength":32,
			"byteOffset":96,
			"target":34962
		},
		{
			"buffer":0,
			"byteLength":12,
			"byteOffset":128,
			"target":34963
		},
		{
			"buffer":0,
			"byteLength":48,
			"byteOffset":140,
			"target":34962
		},
		{
			"buffer":0,
			"byteLength":48,
			"byteOffset":188,
			"target":34962
		},
		{
			"buffer":0,
			"byteLength":32,
			"byteOffset":236,
			"target":34962
		}
	],
	"samplers":[
		{
			"magFilter":9728,
			"minFilter":9984
		}
	],
	"buffers":[
		{
			"byteLength":268,
			"uri":"trees.bin"
		}
	]
}
